<svg width="20" height="20" viewBox="0 0 20 20" fill="none" xmlns="http://www.w3.org/2000/svg">
<path fill-rule="evenodd" clip-rule="evenodd" d="M17.4167 7.16658C17.375 7.12492 17.3542 7.08325 17.3333 7.04159C17.3125 6.99992 17.2917 6.95825 17.25 6.91658L11.4167 1.08325C11.3333 0.999919 11.25 0.916585 11.1667 0.916585C11.0833 0.833252 10.9167 0.833252 10.8333 0.833252H5C3.58333 0.833252 2.5 1.91659 2.5 3.33325V16.6666C2.5 18.0833 3.58333 19.1666 5 19.1666H15C16.4167 19.1666 17.5 18.0833 17.5 16.6666V7.49992C17.5 7.41658 17.5 7.24992 17.4167 7.16658ZM11.6667 3.66658L14.6667 6.66658H11.6667V3.66658ZM5 17.4999H15C15.5 17.4999 15.8333 17.1666 15.8333 16.6666V8.33325H10.8333C10.3333 8.33325 10 7.99992 10 7.49992V2.49992H5C4.5 2.49992 4.16667 2.83325 4.16667 3.33325V16.6666C4.16667 17.1666 4.5 17.4999 5 17.4999Z" fill="currentColor"/>
</svg>
