<svg width="20" height="21" viewBox="0 0 20 21" fill="none" xmlns="http://www.w3.org/2000/svg">
<path fill-rule="evenodd" clip-rule="evenodd" d="M2.49935 6.33332H17.4993C17.9993 6.33332 18.3327 5.99999 18.3327 5.49999C18.3327 4.99999 17.9993 4.66666 17.4993 4.66666H2.49935C1.99935 4.66666 1.66602 4.99999 1.66602 5.49999C1.66602 5.99999 1.99935 6.33332 2.49935 6.33332ZM18.3327 10.5C18.3327 11 17.9993 11.3333 17.4993 11.3333H2.49935C1.99935 11.3333 1.66602 11 1.66602 10.5C1.66602 9.99999 1.99935 9.66666 2.49935 9.66666H17.4993C17.9993 9.66666 18.3327 9.99999 18.3327 10.5ZM2.49935 14.6667H17.4993C17.9993 14.6667 18.3327 15 18.3327 15.5C18.3327 16 17.9993 16.3333 17.4993 16.3333H2.49935C1.99935 16.3333 1.66602 16 1.66602 15.5C1.66602 15 1.99935 14.6667 2.49935 14.6667Z" fill="#363636"/>
</svg>
