<svg width="20" height="20" viewBox="0 0 20 20" fill="none" xmlns="http://www.w3.org/2000/svg">
<path fill-rule="evenodd" clip-rule="evenodd" d="M4.16732 13.3333C4.66732 13.3333 5.00065 12.9999 5.00065 12.4999C5.00065 11.9999 4.66732 11.6666 4.16732 11.6666H3.33398C2.83398 11.6666 2.50065 11.3333 2.50065 10.8333V3.33325C2.50065 2.83325 2.83398 2.49992 3.33398 2.49992H10.834C11.334 2.49992 11.6673 2.83325 11.6673 3.33325V4.16659C11.6673 4.66659 12.0007 4.99992 12.5007 4.99992C13.0007 4.99992 13.334 4.66659 13.334 4.16659V3.33325C13.334 1.91659 12.2507 0.833252 10.834 0.833252H3.33398C1.91732 0.833252 0.833984 1.91659 0.833984 3.33325V10.8333C0.833984 12.2499 1.91732 13.3333 3.33398 13.3333H4.16732ZM16.6673 6.66659H9.16732C7.75065 6.66659 6.66732 7.74992 6.66732 9.16658V16.6666C6.66732 18.0833 7.75065 19.1666 9.16732 19.1666H16.6673C18.084 19.1666 19.1673 18.0833 19.1673 16.6666V9.16658C19.1673 7.74992 18.084 6.66659 16.6673 6.66659ZM17.5007 16.6666C17.5007 17.1666 17.1673 17.4999 16.6673 17.4999H9.16732C8.66732 17.4999 8.33398 17.1666 8.33398 16.6666V9.16658C8.33398 8.66658 8.66732 8.33325 9.16732 8.33325H16.6673C17.1673 8.33325 17.5007 8.66658 17.5007 9.16658V16.6666Z"  fill="#9A99A2"/>
</svg>
