<svg width="20" height="20" viewBox="0 0 20 20" fill="none" xmlns="http://www.w3.org/2000/svg">
<path fill-rule="evenodd" clip-rule="evenodd" d="M9.9071 11.086L5.28547 15.7077C4.93192 16.0612 4.46052 16.0612 4.10696 15.7077C3.75341 15.3541 3.75341 14.8827 4.10696 14.5291L8.72859 9.90752L4.10701 5.28593C3.75345 4.93238 3.75345 4.46098 4.10701 4.10742C4.46056 3.75387 4.93196 3.75387 5.28552 4.10742L9.9071 8.72901L14.7136 3.92254C15.0671 3.56899 15.5385 3.56899 15.8921 3.92254C16.2456 4.2761 16.2456 4.7475 15.8921 5.10106L11.0856 9.90752L15.8921 14.714C16.2457 15.0676 16.2457 15.539 15.8921 15.8925C15.5386 16.2461 15.0672 16.2461 14.7136 15.8925L9.9071 11.086Z" fill="white"/>
</svg>
