<svg width="20" height="21" viewBox="0 0 20 21" fill="none" xmlns="http://www.w3.org/2000/svg">
<path fill-rule="evenodd" clip-rule="evenodd" d="M18.9163 6.08334L10.583 14.4167C10.4163 14.5833 10.2497 14.6667 9.99967 14.6667H6.66634C6.16634 14.6667 5.83301 14.3333 5.83301 13.8333V10.5C5.83301 10.25 5.91634 10.0833 6.08301 9.91668L14.4163 1.58334C14.7497 1.25001 15.2497 1.25001 15.583 1.58334L18.9163 4.91668C19.2497 5.25001 19.2497 5.75001 18.9163 6.08334ZM17.4997 12.75V17.1667C17.4997 18.5833 16.4163 19.6667 14.9997 19.6667H3.33301C1.91634 19.6667 0.833008 18.5833 0.833008 17.1667V5.50001C0.833008 4.08334 1.91634 3.00001 3.33301 3.00001H7.74967C8.24967 3.00001 8.58301 3.33334 8.58301 3.83334C8.58301 4.33334 8.24967 4.66668 7.74967 4.66668H3.33301C2.83301 4.66668 2.49967 5.00001 2.49967 5.50001V17.1667C2.49967 17.6667 2.83301 18 3.33301 18H14.9997C15.4997 18 15.833 17.6667 15.833 17.1667V12.75C15.833 12.25 16.1663 11.9167 16.6663 11.9167C17.1663 11.9167 17.4997 12.25 17.4997 12.75ZM14.9997 3.33334L17.1663 5.50001L9.66634 13H7.49967V10.8333L14.9997 3.33334Z" fill="#9A99A2"/>
</svg>
