<svg width="20" height="20" viewBox="0 0 20 20" fill="none" xmlns="http://www.w3.org/2000/svg">
<path d="M17.8119 3.88962H11.041V2.22303C11.041 2.05748 10.9723 1.90082 10.8525 1.79527C10.7337 1.68972 10.5744 1.64416 10.4244 1.6775L2.09102 3.34409C1.84414 3.39298 1.66602 3.62185 1.66602 3.88962V16.1113C1.66602 16.3779 1.84414 16.6079 2.09102 16.6568L10.4244 18.3234C10.4556 18.3301 10.4879 18.3334 10.5202 18.3334C10.641 18.3334 10.7587 18.289 10.8525 18.2056C10.9723 18.1001 11.041 17.9423 11.041 17.7779V16.1113H17.8119C18.0994 16.1113 18.3327 15.8624 18.3327 15.5558V4.44515C18.3327 4.1385 18.0994 3.88962 17.8119 3.88962ZM8.82852 11.857C9.0181 12.087 8.99623 12.4381 8.77956 12.6403C8.6806 12.7326 8.55873 12.7781 8.43685 12.7781C8.29206 12.7781 8.14831 12.7137 8.04518 12.5881L6.5306 10.7426L5.20247 12.5648C5.09935 12.7048 4.94518 12.7781 4.79102 12.7781C4.67956 12.7781 4.56706 12.7403 4.47122 12.6614C4.24414 12.4726 4.20352 12.1237 4.37956 11.8815L5.83164 9.89046L4.39935 8.14387C4.20977 7.91388 4.23164 7.56279 4.44831 7.36058C4.66393 7.15836 4.99206 7.18058 5.18372 7.4128L6.48373 8.99717L8.02643 6.88171C8.20352 6.64061 8.5306 6.59617 8.75768 6.78505C8.98477 6.97282 9.02539 7.32169 8.84831 7.56501L7.18164 9.84935L8.82852 11.857ZM17.291 15.0002H11.041V13.8892H12.6035C12.891 13.8892 13.1244 13.6403 13.1244 13.3336C13.1244 13.027 12.891 12.7781 12.6035 12.7781H11.041V11.667H12.6035C12.891 11.667 13.1244 11.4182 13.1244 11.1115C13.1244 10.8049 12.891 10.556 12.6035 10.556H11.041V9.44493H12.6035C12.891 9.44493 13.1244 9.19605 13.1244 8.8894C13.1244 8.58274 12.891 8.33387 12.6035 8.33387H11.041V7.2228H12.6035C12.891 7.2228 13.1244 6.97393 13.1244 6.66727C13.1244 6.36062 12.891 6.11174 12.6035 6.11174H11.041V5.00068H17.291V15.0002Z" fill="#363636"/>
<path d="M15.7285 6.11186H14.6869C14.3994 6.11186 14.166 6.36074 14.166 6.66739C14.166 6.97405 14.3994 7.22293 14.6869 7.22293H15.7285C16.016 7.22293 16.2494 6.97405 16.2494 6.66739C16.2494 6.36074 16.016 6.11186 15.7285 6.11186Z" fill="#363636"/>
<path d="M15.7285 8.33399H14.6869C14.3994 8.33399 14.166 8.58286 14.166 8.88952C14.166 9.19617 14.3994 9.44505 14.6869 9.44505H15.7285C16.016 9.44505 16.2494 9.19617 16.2494 8.88952C16.2494 8.58286 16.016 8.33399 15.7285 8.33399Z" fill="#363636"/>
<path d="M15.7285 10.5562H14.6869C14.3994 10.5562 14.166 10.8051 14.166 11.1117C14.166 11.4184 14.3994 11.6672 14.6869 11.6672H15.7285C16.016 11.6672 16.2494 11.4184 16.2494 11.1117C16.2494 10.8051 16.016 10.5562 15.7285 10.5562Z" fill="#363636"/>
<path d="M15.7285 12.7783H14.6869C14.3994 12.7783 14.166 13.0272 14.166 13.3338C14.166 13.6405 14.3994 13.8894 14.6869 13.8894H15.7285C16.016 13.8894 16.2494 13.6405 16.2494 13.3338C16.2494 13.0272 16.016 12.7783 15.7285 12.7783Z" fill="#363636"/>
</svg>
