<svg width="20" height="20" viewBox="0 0 20 20" fill="none" xmlns="http://www.w3.org/2000/svg">
<path fill-rule="evenodd" clip-rule="evenodd" d="M9.66601 14.0833C9.58267 14.0833 9.49934 13.9999 9.41601 13.9166L6.08267 10.5833C5.74934 10.2499 5.74934 9.74992 6.08267 9.41658C6.41601 9.08325 6.91601 9.08325 7.24934 9.41658L9.16601 11.3333V1.66659C9.16601 1.16659 9.49934 0.833252 9.99934 0.833252C10.4993 0.833252 10.8327 1.16659 10.8327 1.66659V11.3333L12.7493 9.41658C13.0827 9.08325 13.5827 9.08325 13.916 9.41658C14.2493 9.74992 14.2493 10.2499 13.916 10.5833L10.5827 13.9166C10.541 13.9583 10.4993 13.9791 10.4577 13.9999C10.416 14.0208 10.3743 14.0416 10.3327 14.0833C10.2493 14.1666 10.0827 14.1666 9.99934 14.1666C9.91601 14.1666 9.74934 14.1666 9.66601 14.0833ZM18.3327 16.6666V14.1666C18.3327 13.6666 17.9993 13.3333 17.4993 13.3333C16.9993 13.3333 16.666 13.6666 16.666 14.1666V16.6666C16.666 17.1666 16.3327 17.4999 15.8327 17.4999H4.16602C3.66602 17.4999 3.33268 17.1666 3.33268 16.6666V14.1666C3.33268 13.6666 2.99935 13.3333 2.49935 13.3333C1.99935 13.3333 1.66602 13.6666 1.66602 14.1666V16.6666C1.66602 18.0833 2.74935 19.1666 4.16602 19.1666H15.8327C17.2493 19.1666 18.3327 18.0833 18.3327 16.6666Z" fill="white"/>
</svg>
