<svg width="20" height="20" viewBox="0 0 20 20" fill="none" xmlns="http://www.w3.org/2000/svg">
<path fill-rule="evenodd" clip-rule="evenodd" d="M4.16699 1.66666H6.66699C7.16699 1.66666 7.50033 1.99999 7.50033 2.49999C7.50033 2.99999 7.16699 3.33332 6.66699 3.33332H4.16699C3.66699 3.33332 3.33366 3.66666 3.33366 4.16666V6.66666C3.33366 7.16666 3.00033 7.49999 2.50033 7.49999C2.00033 7.49999 1.66699 7.16666 1.66699 6.66666V4.16666C1.66699 2.74999 2.75033 1.66666 4.16699 1.66666ZM6.66699 18.3333C7.16699 18.3333 7.50033 18 7.50033 17.5C7.50033 17 7.16699 16.6667 6.66699 16.6667H4.16699C3.66699 16.6667 3.33366 16.3333 3.33366 15.8333V13.3333C3.33366 12.8333 3.00033 12.5 2.50033 12.5C2.00033 12.5 1.66699 12.8333 1.66699 13.3333V15.8333C1.66699 17.25 2.75033 18.3333 4.16699 18.3333H6.66699ZM17.5003 12.5C17.0003 12.5 16.667 12.8333 16.667 13.3333V15.8333C16.667 16.3333 16.3337 16.6667 15.8337 16.6667H13.3337C12.8337 16.6667 12.5003 17 12.5003 17.5C12.5003 18 12.8337 18.3333 13.3337 18.3333H15.8337C17.2503 18.3333 18.3337 17.25 18.3337 15.8333V13.3333C18.3337 12.8333 18.0003 12.5 17.5003 12.5ZM13.3337 1.66666H15.8337C17.2503 1.66666 18.3337 2.74999 18.3337 4.16666V6.66666C18.3337 7.16666 18.0003 7.49999 17.5003 7.49999C17.0003 7.49999 16.667 7.16666 16.667 6.66666V4.16666C16.667 3.66666 16.3337 3.33332 15.8337 3.33332H13.3337C12.8337 3.33332 12.5003 2.99999 12.5003 2.49999C12.5003 1.99999 12.8337 1.66666 13.3337 1.66666Z" fill="white"/>
</svg>
