<svg width="20" height="20" viewBox="0 0 20 20" fill="none" xmlns="http://www.w3.org/2000/svg">
<path fill-rule="evenodd" clip-rule="evenodd" d="M9.9462 2C9.48504 2 9.1112 2.37384 9.1112 2.835V9.1125H2.835C2.37384 9.1125 2 9.48634 2 9.9475C2 10.4087 2.37384 10.7825 2.835 10.7825H9.1112V17.165C9.1112 17.6262 9.48504 18 9.9462 18C10.4074 18 10.7812 17.6262 10.7812 17.165V10.7825H17.165C17.6262 10.7825 18 10.4087 18 9.9475C18 9.48634 17.6262 9.1125 17.165 9.1125H10.7812V2.835C10.7812 2.37384 10.4074 2 9.9462 2Z" fill="white"/>
</svg>
