<svg width="20" height="21" viewBox="0 0 20 21" fill="none" xmlns="http://www.w3.org/2000/svg">
<path fill-rule="evenodd" clip-rule="evenodd" d="M3.66699 2.16669C2.56242 2.16669 1.66699 3.06212 1.66699 4.16669V7.66669C1.66699 8.77126 2.56242 9.66669 3.66699 9.66669H7.16699C8.27156 9.66669 9.16699 8.77126 9.16699 7.66669V4.16669C9.16699 3.06212 8.27156 2.16669 7.16699 2.16669H3.66699ZM4.33366 3.83339C3.78137 3.83339 3.33366 4.2811 3.33366 4.83339V7.00005C3.33366 7.55234 3.78137 8.00005 4.33366 8.00005H6.50032C7.05261 8.00005 7.50032 7.55234 7.50032 7.00005V4.83339C7.50032 4.2811 7.05261 3.83339 6.50032 3.83339H4.33366Z" fill="#9A99A2"/>
<path fill-rule="evenodd" clip-rule="evenodd" d="M3.66699 11.3333C2.56242 11.3333 1.66699 12.2287 1.66699 13.3333V16.8333C1.66699 17.9379 2.56242 18.8333 3.66699 18.8333H7.16699C8.27156 18.8333 9.16699 17.9379 9.16699 16.8333V13.3333C9.16699 12.2287 8.27156 11.3333 7.16699 11.3333H3.66699ZM4.33366 13C3.78137 13 3.33366 13.4477 3.33366 14V16.1667C3.33366 16.719 3.78137 17.1667 4.33366 17.1667H6.50032C7.05261 17.1667 7.50032 16.719 7.50032 16.1667V14C7.50032 13.4477 7.05261 13 6.50032 13H4.33366Z" fill="#9A99A2"/>
<path fill-rule="evenodd" clip-rule="evenodd" d="M12.833 2.16669C11.7284 2.16669 10.833 3.06212 10.833 4.16669V7.66669C10.833 8.77126 11.7284 9.66669 12.833 9.66669H16.333C17.4376 9.66669 18.333 8.77126 18.333 7.66669V4.16669C18.333 3.06212 17.4376 2.16669 16.333 2.16669H12.833ZM13.4997 3.83339C12.9474 3.83339 12.4997 4.2811 12.4997 4.83339V7.00005C12.4997 7.55234 12.9474 8.00005 13.4997 8.00005H15.6663C16.2186 8.00005 16.6663 7.55234 16.6663 7.00005V4.83339C16.6663 4.2811 16.2186 3.83339 15.6663 3.83339H13.4997Z" fill="#9A99A2"/>
<rect x="10.833" y="11.3333" width="1.66667" height="7.5" rx="0.833333" fill="#9A99A2"/>
<rect x="10.833" y="11.3333" width="3.33333" height="1.66667" rx="0.833333" fill="#9A99A2"/>
<rect x="16.667" y="15.5" width="1.66667" height="3.33334" rx="0.833336" fill="#9A99A2"/>
<rect x="16.667" y="11.3333" width="1.66667" height="2.5" rx="0.833336" fill="#9A99A2"/>
<rect x="15.833" y="17.1667" width="2.5" height="1.66667" rx="0.833335" fill="#9A99A2"/>
<rect x="14.167" y="13.8333" width="1.66667" height="1.66667" rx="0.833333" fill="#9A99A2"/>
<rect x="13.333" y="17.1667" width="1.66667" height="1.66667" rx="0.833333" fill="#9A99A2"/>
</svg>
