<svg width="20" height="21" viewBox="0 0 20 21" fill="none" xmlns="http://www.w3.org/2000/svg">
<path fill-rule="evenodd" clip-rule="evenodd" d="M3.33301 1.33325H16.6663C18.083 1.33325 19.1663 2.41659 19.1663 3.83325V7.16659C19.1663 8.58325 18.083 9.66659 16.6663 9.66659H3.33301C1.91634 9.66659 0.833008 8.58325 0.833008 7.16659V3.83325C0.833008 2.41659 1.91634 1.33325 3.33301 1.33325ZM16.6663 7.99992C17.1663 7.99992 17.4997 7.66658 17.4997 7.16658V3.83325C17.4997 3.33325 17.1663 2.99992 16.6663 2.99992H3.33301C2.83301 2.99992 2.49967 3.33325 2.49967 3.83325V7.16658C2.49967 7.66658 2.83301 7.99992 3.33301 7.99992H16.6663ZM16.6663 11.3333H3.33301C1.91634 11.3333 0.833008 12.4166 0.833008 13.8333V17.1666C0.833008 18.5833 1.91634 19.6666 3.33301 19.6666H16.6663C18.083 19.6666 19.1663 18.5833 19.1663 17.1666V13.8333C19.1663 12.4166 18.083 11.3333 16.6663 11.3333ZM16.6663 17.9999C17.1663 17.9999 17.4997 17.6666 17.4997 17.1666V13.8333C17.4997 13.3333 17.1663 12.9999 16.6663 12.9999H3.33301C2.83301 12.9999 2.49967 13.3333 2.49967 13.8333V17.1666C2.49967 17.6666 2.83301 17.9999 3.33301 17.9999H16.6663ZM5.58301 4.91658C5.74967 5.08325 5.83301 5.24991 5.83301 5.49991C5.83301 5.74991 5.74967 5.91658 5.58301 6.08325C5.41634 6.24991 5.24967 6.33325 4.99967 6.33325C4.74967 6.33325 4.58301 6.24991 4.41634 6.08325C4.33301 5.99991 4.24967 5.91658 4.24967 5.83325C4.16634 5.74991 4.16634 5.58325 4.16634 5.49991C4.16634 5.41658 4.16634 5.24991 4.24967 5.16658C4.29134 5.12491 4.31217 5.08325 4.33301 5.04158C4.35384 4.99991 4.37467 4.95825 4.41634 4.91658C4.49967 4.83325 4.58301 4.74991 4.66634 4.74991C4.91634 4.66658 5.08301 4.66658 5.33301 4.74991C5.41634 4.74991 5.49967 4.83325 5.58301 4.91658ZM5.83301 15.4999C5.83301 15.2499 5.74967 15.0833 5.58301 14.9166C5.24967 14.5833 4.74967 14.5833 4.41634 14.9166C4.37467 14.9583 4.35384 14.9999 4.33301 15.0416C4.31217 15.0833 4.29134 15.1249 4.24967 15.1666C4.16634 15.2499 4.16634 15.4166 4.16634 15.4999C4.16634 15.7499 4.24967 15.9166 4.41634 16.0833C4.58301 16.2499 4.74967 16.3333 4.99967 16.3333C5.24967 16.3333 5.41634 16.2499 5.58301 16.0833C5.74967 15.9166 5.83301 15.7499 5.83301 15.4999Z" fill="#9A99A2"/>
</svg>
