<svg width="20" height="21" viewBox="0 0 20 21" fill="none" xmlns="http://www.w3.org/2000/svg">
<path fill-rule="evenodd" clip-rule="evenodd" d="M17.5003 4.66668H14.167V3.83334C14.167 2.41668 13.0837 1.33334 11.667 1.33334H8.33366C6.91699 1.33334 5.83366 2.41668 5.83366 3.83334V4.66668H2.50033C2.00033 4.66668 1.66699 5.00001 1.66699 5.50001C1.66699 6.00001 2.00033 6.33334 2.50033 6.33334H3.33366V17.1667C3.33366 18.5833 4.41699 19.6667 5.83366 19.6667H14.167C15.5837 19.6667 16.667 18.5833 16.667 17.1667V6.33334H17.5003C18.0003 6.33334 18.3337 6.00001 18.3337 5.50001C18.3337 5.00001 18.0003 4.66668 17.5003 4.66668ZM7.50033 3.83334C7.50033 3.33334 7.83366 3.00001 8.33366 3.00001H11.667C12.167 3.00001 12.5003 3.33334 12.5003 3.83334V4.66668H7.50033V3.83334ZM14.167 18C14.667 18 15.0003 17.6667 15.0003 17.1667V6.33334H5.00033V17.1667C5.00033 17.6667 5.33366 18 5.83366 18H14.167ZM9.16699 9.66668V14.6667C9.16699 15.1667 8.83366 15.5 8.33366 15.5C7.83366 15.5 7.50033 15.1667 7.50033 14.6667V9.66668C7.50033 9.16668 7.83366 8.83334 8.33366 8.83334C8.83366 8.83334 9.16699 9.16668 9.16699 9.66668ZM12.5003 14.6667V9.66668C12.5003 9.16668 12.167 8.83334 11.667 8.83334C11.167 8.83334 10.8337 9.16668 10.8337 9.66668V14.6667C10.8337 15.1667 11.167 15.5 11.667 15.5C12.167 15.5 12.5003 15.1667 12.5003 14.6667Z" fill="#9A99A2"/>
</svg>
